<?xml version="1.0" standalone="no"?>
<!DOCTYPE svg PUBLIC "-//W3C//DTD SVG 20010904//EN"
 "http://www.w3.org/TR/2001/REC-SVG-20010904/DTD/svg10.dtd">
<svg version="1.0" xmlns="http://www.w3.org/2000/svg"
 width="20.000000pt" height="20.000000pt" viewBox="0 0 600.000000 600.000000"
 preserveAspectRatio="xMidYMid meet">

<g transform="translate(0.000000,600.000000) scale(0.100000,-0.100000)"
fill="#000000" stroke="none">
<path d="M3738 5587 l-2018 -412 0 -1763 0 -1763 -57 8 c-108 15 -390 9 -483
-11 -691 -147 -1116 -723 -886 -1202 149 -311 567 -489 1016 -434 483 60 893
354 1027 735 l28 80 3 1678 c1 922 6 1677 11 1677 8 0 2683 544 2724 554 16 4
17 -58 17 -1196 l0 -1199 -57 8 c-108 15 -390 9 -483 -11 -474 -101 -839 -405
-931 -776 -27 -105 -22 -252 10 -343 56 -160 175 -301 325 -386 602 -341 1527
-26 1750 597 l31 87 3 2243 c1 1233 -1 2242 -5 2241 -5 0 -916 -186 -2025
-412z"/>
</g>
</svg>
